<svg width="25.000000" height="24.000000" viewBox="0 0 25 24" fill="none" xmlns="http://www.w3.org/2000/svg" xmlns:xlink="http://www.w3.org/1999/xlink">
	<desc>
			Created with Pixso.
	</desc>
	<defs>
		<clipPath id="clip2_73">
			<rect id="IMAGE" rx="0.000000" width="24.000000" height="23.000000" transform="translate(0.500000 0.500000)" fill="white" fill-opacity="0"/>
		</clipPath>
	</defs>
	<g clip-path="url(#clip2_73)">
		<path id="Vector" d="M12.31 0C5.68 0 0.31 5.37 0.31 11.99C0.31 16.9 3.27 21.12 7.49 22.98C7.46 22.15 7.49 21.14 7.7 20.23C7.93 19.26 9.25 13.69 9.25 13.69C9.25 13.69 8.86 12.92 8.86 11.79C8.86 10.02 9.89 8.69 11.17 8.69C12.27 8.69 12.79 9.51 12.79 10.49C12.79 11.59 12.09 13.22 11.73 14.75C11.43 16.02 12.37 17.05 13.63 17.05C15.9 17.05 17.43 14.13 17.43 10.67C17.43 8.04 15.66 6.08 12.44 6.08C8.8 6.08 6.53 8.79 6.53 11.83C6.53 12.87 6.84 13.61 7.32 14.18C7.54 14.44 7.57 14.55 7.49 14.85C7.43 15.07 7.31 15.6 7.25 15.81C7.17 16.12 6.92 16.22 6.65 16.11C4.97 15.43 4.19 13.59 4.19 11.53C4.19 8.12 7.06 4.03 12.77 4.03C17.35 4.03 20.36 7.35 20.36 10.91C20.36 15.61 17.74 19.13 13.89 19.13C12.59 19.13 11.37 18.42 10.95 17.63C10.95 17.63 10.26 20.4 10.11 20.93C9.86 21.86 9.36 22.78 8.9 23.5C10.01 23.83 11.15 23.99 12.3 24C18.93 24 24.31 18.62 24.31 12C24.31 5.37 18.94 0 12.31 0Z" fill="#FFFFFF" fill-opacity="1.000000" fill-rule="nonzero"/>
	</g>
</svg>
