<svg width="24.000000" height="23.000000" viewBox="0 0 24 23" fill="none" xmlns="http://www.w3.org/2000/svg" xmlns:xlink="http://www.w3.org/1999/xlink">
	<desc>
			Created with Pixso.
	</desc>
	<defs>
		<clipPath id="clip2_75">
			<rect id="IMAGE" rx="0.000000" width="23.000000" height="22.000000" transform="translate(0.500000 0.500000)" fill="white" fill-opacity="0"/>
		</clipPath>
	</defs>
	<g clip-path="url(#clip2_75)">
		<path id="Vector" d="M23.62 11.37C23.62 5.09 18.33 0 11.81 0C5.28 0 0 5.09 0 11.37C0 17.05 4.31 21.75 9.96 22.61L9.96 14.66L6.96 14.66L6.96 11.37L9.96 11.37L9.96 8.86C9.96 6.01 11.73 4.44 14.42 4.44C15.72 4.44 17.07 4.66 17.07 4.66L17.07 7.46L15.58 7.46C14.11 7.46 13.65 8.34 13.65 9.24L13.65 11.37L16.93 11.37L16.41 14.66L13.65 14.66L13.65 22.61C19.3 21.75 23.62 17.05 23.62 11.37Z" fill="#FFFFFF" fill-opacity="1.000000" fill-rule="evenodd"/>
	</g>
</svg>
