<svg width="24.000000" height="23.000000" viewBox="0 0 24 23" fill="none" xmlns="http://www.w3.org/2000/svg" xmlns:xlink="http://www.w3.org/1999/xlink">
	<desc>
			Created with Pixso.
	</desc>
	<defs>
		<clipPath id="clip2_68">
			<rect id="IMAGE" rx="0.000000" width="23.000000" height="22.000000" transform="translate(0.500000 0.500000)" fill="white" fill-opacity="0"/>
		</clipPath>
	</defs>
	<g clip-path="url(#clip2_68)">
		<path id="Vector" d="M16.73 1.89C18.03 1.89 19.28 2.39 20.21 3.28C21.13 4.17 21.65 5.37 21.65 6.63L21.65 16.11C21.65 17.37 21.13 18.57 20.21 19.46C19.28 20.35 18.03 20.85 16.73 20.85L6.89 20.85C5.58 20.85 4.33 20.35 3.41 19.46C2.49 18.57 1.97 17.37 1.96 16.11L1.96 6.63C1.97 5.37 2.49 4.17 3.41 3.28C4.33 2.39 5.58 1.89 6.89 1.89L16.73 1.89ZM16.73 0L6.89 0C3.1 0 0 2.98 0 6.63L0 16.11C0 19.76 3.1 22.75 6.89 22.75L16.73 22.75C20.52 22.75 23.62 19.76 23.62 16.11L23.62 6.63C23.62 2.98 20.52 0 16.73 0Z" fill="#FFFFFF" fill-opacity="1.000000" fill-rule="nonzero"/>
		<path id="Vector" d="M18.21 6.63C17.91 6.63 17.63 6.55 17.39 6.39C17.14 6.23 16.95 6.01 16.84 5.75C16.73 5.49 16.7 5.21 16.76 4.93C16.81 4.66 16.96 4.4 17.16 4.2C17.37 4 17.63 3.87 17.92 3.81C18.2 3.76 18.5 3.79 18.77 3.9C19.04 4 19.27 4.19 19.43 4.42C19.6 4.65 19.68 4.93 19.68 5.21C19.68 5.4 19.64 5.58 19.57 5.75C19.5 5.93 19.39 6.08 19.25 6.22C19.11 6.35 18.95 6.45 18.77 6.52C18.59 6.59 18.4 6.63 18.21 6.63ZM11.81 7.58C12.59 7.58 13.35 7.8 14 8.22C14.64 8.63 15.15 9.23 15.45 9.92C15.74 10.61 15.82 11.37 15.67 12.11C15.52 12.85 15.14 13.52 14.59 14.05C14.04 14.58 13.34 14.94 12.58 15.09C11.81 15.24 11.02 15.16 10.3 14.87C9.58 14.59 8.97 14.1 8.53 13.48C8.1 12.85 7.87 12.12 7.87 11.37C7.87 10.36 8.29 9.4 9.02 8.69C9.76 7.98 10.76 7.58 11.81 7.58ZM11.81 5.68C10.64 5.68 9.5 6.02 8.53 6.64C7.55 7.27 6.8 8.15 6.35 9.19C5.9 10.23 5.79 11.38 6.01 12.48C6.24 13.58 6.81 14.6 7.63 15.39C8.46 16.19 9.51 16.73 10.66 16.95C11.8 17.17 12.99 17.06 14.07 16.62C15.15 16.19 16.07 15.47 16.72 14.53C17.37 13.59 17.71 12.5 17.71 11.37C17.71 9.86 17.09 8.42 15.98 7.35C14.88 6.28 13.37 5.68 11.81 5.68Z" fill="#FFFFFF" fill-opacity="1.000000" fill-rule="nonzero"/>
	</g>
</svg>
