<svg width="26.000000" height="21.000000" viewBox="0 0 26 21" fill="none" xmlns="http://www.w3.org/2000/svg" xmlns:xlink="http://www.w3.org/1999/xlink">
	<desc>
			Created with Pixso.
	</desc>
	<defs>
		<clipPath id="clip2_71">
			<rect id="IMAGE" rx="0.000000" width="25.000000" height="20.000000" transform="translate(0.500000 0.500000)" fill="white" fill-opacity="0"/>
		</clipPath>
	</defs>
	<g clip-path="url(#clip2_71)">
		<path id="Vector" d="M25.46 2.39C24.51 2.81 23.51 3.08 22.48 3.2C23.56 2.57 24.37 1.56 24.77 0.37C23.75 0.97 22.63 1.39 21.47 1.61C20.98 1.1 20.39 0.69 19.74 0.41C19.09 0.14 18.38 -0.01 17.68 0C14.81 0 12.48 2.28 12.48 5.1C12.48 5.5 12.53 5.89 12.62 6.27C10.56 6.17 8.54 5.65 6.7 4.73C4.86 3.81 3.23 2.51 1.91 0.93C1.45 1.71 1.21 2.59 1.21 3.5C1.21 5.27 2.13 6.83 3.53 7.75C2.7 7.73 1.89 7.51 1.16 7.11L1.16 7.18C1.16 9.66 2.96 11.72 5.33 12.19C4.88 12.31 4.42 12.37 3.96 12.37C3.64 12.37 3.31 12.34 2.99 12.27C3.65 14.3 5.57 15.78 7.84 15.82C5.99 17.24 3.72 18.01 1.39 18.01C0.98 18.01 0.56 17.98 0.15 17.94C2.52 19.45 5.28 20.25 8.1 20.25C17.66 20.25 22.89 12.46 22.89 5.7C22.89 5.48 22.88 5.26 22.87 5.04C23.89 4.32 24.76 3.42 25.46 2.39Z" fill="#FFFFFF" fill-opacity="1.000000" fill-rule="nonzero"/>
	</g>
</svg>
