<svg width="83.000000" height="83.000000" viewBox="0 0 83 83" fill="none" xmlns="http://www.w3.org/2000/svg" xmlns:xlink="http://www.w3.org/1999/xlink">
	<desc>
			Created with Pixso.
	</desc>
	<defs>
		<clipPath id="clip2_120">
			<rect id="IMAGE" rx="0.000000" width="48.000000" height="48.000000" transform="translate(17.500000 17.500000)" fill="white" fill-opacity="0"/>
		</clipPath>
	</defs>
	<rect id="Rectangle" rx="41.500000" width="83.000000" height="83.000000" fill="#292E36" fill-opacity="1.000000"/>
	<g clip-path="url(#clip2_120)">
		<path id="Vector" d="M25.11 26.8C21.55 30.79 19.56 35.92 19.5 41.25C19.36 53.45 29.32 63.45 41.5 63.49C53.67 63.51 63.5 53.65 63.5 41.49C63.5 29.52 53.91 19.76 42 19.5C41.94 19.5 41.86 19.5 41.8 19.54C41.74 19.56 41.68 19.6 41.64 19.64C41.6 19.68 41.56 19.74 41.52 19.8C41.5 19.86 41.48 19.92 41.48 20L41.48 29.58" stroke="#FFFFFF" stroke-opacity="1.000000" stroke-width="3.500000" stroke-linejoin="round" stroke-linecap="round"/>
		<path id="Vector" d="M38.92 44.07L29.86 31.13C29.72 30.95 29.68 30.73 29.7 30.51C29.72 30.28 29.8 30.08 29.96 29.92C30.12 29.76 30.33 29.68 30.55 29.66C30.75 29.64 30.97 29.7 31.15 29.82L44.09 38.88C44.88 39.44 45.42 40.31 45.58 41.27C45.74 42.24 45.52 43.23 44.96 44.03C44.39 44.84 43.55 45.38 42.58 45.56C41.62 45.74 40.63 45.52 39.83 44.98C39.48 44.74 39.16 44.43 38.92 44.07Z" fill="#FFFFFF" fill-opacity="1.000000" fill-rule="nonzero"/>
	</g>
</svg>
