<svg width="200.000000" height="111.000000" viewBox="0 0 200 111" fill="none" xmlns="http://www.w3.org/2000/svg" xmlns:xlink="http://www.w3.org/1999/xlink">
	<desc>
			Created with Pixso.
	</desc>
	<defs>
		<clipPath id="clip2_151">
			<rect id="IMAGE" rx="0.000000" width="199.000000" height="110.000000" transform="translate(0.500000 0.500000)" fill="white" fill-opacity="0"/>
		</clipPath>
	</defs>
	<g clip-path="url(#clip2_151)">
		<path id="Vector" d="M57.5 53.15C57.98 53.08 58.34 53.23 58.58 53.63C58.86 53.99 58.92 54.39 58.76 54.84C58.64 55.23 58.34 55.48 57.86 55.55C56.62 55.72 55.24 55.93 53.72 56.22C51.64 63.34 48.38 69.89 43.94 75.89C39.5 81.89 34.14 86.89 27.86 90.89C26.58 91.73 25.56 92.37 24.8 92.81C24.04 93.29 22.88 93.96 21.32 94.79C19.79 95.67 18.44 96.34 17.24 96.77C16.04 97.22 14.72 97.63 13.28 98.03C11.88 98.48 10.54 98.65 9.26 98.58C7.98 98.53 6.82 98.25 5.78 97.73C4.22 96.98 3.16 95.91 2.6 94.55C2.04 93.23 1.96 91.81 2.36 90.29C2.72 88.77 3.24 87.34 3.92 85.98C4.56 84.61 5.34 83.35 6.26 82.2C11.74 75.03 18.44 69.05 26.36 64.25C34.28 59.41 42.76 56.05 51.8 54.17C52.72 50.73 53.36 47.29 53.72 43.85C54.08 40.37 54.1 36.84 53.78 33.23C53.5 29.63 52.86 26.25 51.86 23.1C50.86 19.93 49.34 16.98 47.3 14.22C45.3 11.46 42.88 9.17 40.04 7.37C37.88 6.01 35.54 4.99 33.02 4.31C30.54 3.59 28.04 3.23 25.52 3.23C23.04 3.23 20.56 3.67 18.08 4.55C15.64 5.39 13.44 6.63 11.48 8.27C7.64 11.51 5.12 15.61 3.92 20.58C2.72 25.53 3.1 30.29 5.06 34.85C5.26 35.34 5.22 35.75 4.94 36.11C4.66 36.43 4.3 36.59 3.86 36.59C3.42 36.55 3.1 36.31 2.9 35.87C1.66 33.03 0.98 30.11 0.86 27.11C0.74 24.11 1.1 21.31 1.94 18.71C2.78 16.08 4.06 13.6 5.78 11.27C7.5 8.91 9.48 6.93 11.72 5.33C14 3.73 16.58 2.53 19.45 1.73C22.34 0.89 25.3 0.61 28.34 0.89C32.22 1.25 35.74 2.27 38.9 3.95C42.1 5.63 44.76 7.75 46.88 10.31C49 12.84 50.78 15.73 52.22 19.01C53.7 22.29 54.74 25.7 55.34 29.22C55.98 32.7 56.28 36.25 56.24 39.89C56.16 44.46 55.56 49.03 54.44 53.63C55.64 53.43 56.66 53.27 57.5 53.15ZM48.02 64.67C49.18 62.27 50.2 59.65 51.08 56.81C42.28 58.77 34.02 62.13 26.3 66.89C18.62 71.61 12.4 77.43 7.64 84.35C5.6 87.23 4.58 89.41 4.58 90.89C4.58 91.98 4.76 92.87 5.12 93.6C5.48 94.35 5.9 94.89 6.38 95.22C6.86 95.58 7.48 95.79 8.24 95.87C9.04 95.96 9.76 95.96 10.4 95.87C11.04 95.79 11.82 95.61 12.74 95.34C13.66 95.1 14.34 94.87 14.78 94.67C15.22 94.51 15.8 94.29 16.52 94.01C16.64 93.98 16.74 93.93 16.82 93.89C21.26 92.1 25.44 89.79 29.36 86.99C37.56 81.03 43.78 73.6 48.02 64.67ZM65.88 55.2C67.76 55.67 69.08 56.84 69.84 58.67C70.6 60.48 70.64 62.29 69.96 64.13C69.36 65.89 68.46 67.51 67.26 68.99C66.06 70.48 64.7 71.25 63.18 71.33C61.62 71.41 60.48 70.87 59.76 69.72C59.08 68.55 58.88 67.22 59.16 65.69C59.72 62.58 61.34 59.46 64.02 56.34C64.1 56.25 64.2 56.17 64.32 56.1C64.6 55.34 65.12 55.03 65.88 55.2ZM61.92 68.58C62.68 69.25 63.82 68.79 65.34 67.19C67.1 65.35 68.04 63.43 68.16 61.43C68.28 59.72 67.54 58.49 65.94 57.77C65.62 58.13 65.28 58.58 64.92 59.1C64.56 59.58 64.14 60.17 63.66 60.89C63.18 61.61 62.76 62.34 62.4 63.05C62.04 63.77 61.74 64.49 61.5 65.22C61.26 65.89 61.16 66.53 61.2 67.13C61.28 67.73 61.52 68.22 61.92 68.58ZM90.34 55.85C90.74 55.58 91.16 55.53 91.6 55.73C92.04 55.93 92.28 56.23 92.32 56.63C92.4 57.03 92.26 57.39 91.9 57.72C88.98 59.75 86.32 61.73 83.92 63.65C85 64.33 85.88 65.01 86.56 65.69C87.28 66.33 87.9 67.08 88.42 67.91C88.98 68.75 89.18 69.67 89.02 70.67C88.86 71.67 88.36 72.67 87.52 73.67C86.68 74.67 85.58 75.6 84.22 76.43C82.86 77.31 81.42 77.98 79.9 78.41C78.42 78.89 77 78.87 75.64 78.35C74.28 77.83 73.3 76.77 72.7 75.17C71.78 72.65 73.12 69.75 76.72 66.48C77.6 65.72 78.6 64.85 79.72 63.89C79.64 63.85 79.12 63.58 78.16 63.05C77.2 62.53 76.56 62.17 76.24 61.98C75.92 61.77 75.4 61.43 74.68 60.96C74 60.48 73.46 60.01 73.06 59.58C72.66 59.13 72.3 58.65 71.98 58.13C70.74 55.98 71.42 53.55 74.02 50.87C76.26 48.55 78.84 47.05 81.76 46.37C84.96 45.61 86.98 46.31 87.82 48.48C87.94 48.84 88.04 49.23 88.12 49.67C88.16 50.15 88 50.53 87.64 50.81C87.28 51.05 86.88 51.11 86.44 50.99C86 50.84 85.76 50.51 85.72 50.03C85.4 47.84 83.38 47.85 79.66 50.1C78.02 51.05 76.78 51.96 75.94 52.79C75.22 53.51 74.7 54.13 74.38 54.65C74.1 55.17 74.02 55.75 74.14 56.39C74.3 56.99 74.74 57.63 75.46 58.31C75.82 58.63 76.24 58.98 76.72 59.34C77.2 59.65 77.6 59.91 77.92 60.11C78.28 60.31 78.78 60.61 79.42 61.01C80.1 61.37 80.54 61.61 80.74 61.73C80.86 61.77 81.02 61.87 81.22 62.03C81.46 62.15 81.64 62.23 81.76 62.27C84.4 60.15 87.26 58.01 90.34 55.85ZM84.94 72.83C85.46 72.27 85.84 71.73 86.08 71.22C86.32 70.69 86.4 70.22 86.32 69.77C86.24 69.29 86.08 68.85 85.84 68.46C85.64 68.05 85.3 67.65 84.82 67.25C84.38 66.85 83.94 66.51 83.5 66.23C83.06 65.91 82.54 65.58 81.94 65.22C80.86 66.13 79.84 66.99 78.88 67.79C78.72 67.96 78.44 68.19 78.04 68.51C77.68 68.83 77.38 69.1 77.14 69.29C76.9 69.49 76.64 69.77 76.36 70.13C76.12 70.46 75.92 70.77 75.76 71.1C74.88 73.05 74.96 74.46 76 75.29C77.08 76.13 78.52 76.31 80.32 75.83C81.8 75.48 83.34 74.48 84.94 72.83ZM114.27 55.55C114.63 55.2 115.01 55.11 115.41 55.31C115.81 55.48 116.05 55.77 116.13 56.22C116.25 56.61 116.15 57.01 115.83 57.41C107.59 65.85 100.47 69.35 94.47 67.91C92.35 67.43 90.75 66.51 89.67 65.15C88.59 63.75 88.17 62.22 88.41 60.53C88.61 58.81 89.39 57.17 90.75 55.61C91.83 54.46 93.23 53.51 94.95 52.79C97.51 51.75 98.77 52.39 98.73 54.72C98.73 54.75 98.73 54.79 98.73 54.84C98.69 56.39 97.75 57.87 95.91 59.27C94.07 60.67 92.41 61.13 90.93 60.65C90.77 62.46 91.53 63.79 93.21 64.67C94.89 65.55 96.73 65.81 98.73 65.46C101.57 64.93 104.21 63.84 106.65 62.15C109.13 60.43 111.67 58.23 114.27 55.55ZM95.25 55.2C94.69 55.23 94.07 55.58 93.39 56.22C92.75 56.85 92.19 57.55 91.71 58.31C92.55 58.72 93.57 58.23 94.77 56.87C95.57 55.96 95.79 55.39 95.43 55.2C95.39 55.2 95.33 55.2 95.25 55.2ZM127.66 58.43C128.14 58.35 128.5 58.49 128.74 58.85C129.02 59.22 129.08 59.61 128.92 60.05C128.8 60.49 128.5 60.75 128.02 60.84C123.9 61.48 119.9 62.75 116.02 64.67C115.9 69.48 115.86 74.35 115.9 79.31C116.58 79.87 117.06 80.29 117.34 80.58C120.7 83.7 122.86 88.79 123.82 95.87C124.18 98.55 124.08 101.22 123.52 103.86C122.68 107.98 120.88 108.9 118.12 106.62C117.32 105.94 116.62 105 116.02 103.8C115.46 102.64 115.02 101.48 114.7 100.32C114.42 99.15 114.18 97.73 113.98 96.05C113.82 94.37 113.72 92.98 113.68 91.85C113.64 90.77 113.6 89.39 113.56 87.72C113.52 86.08 113.5 84.99 113.5 84.48C113.46 83.6 113.42 82.41 113.38 80.93C109.3 77.85 104.5 76.58 98.98 77.1C98.38 77.13 97.98 76.87 97.78 76.31C97.54 75.79 97.64 75.33 98.08 74.93C103.56 69.74 108.74 65.81 113.62 63.17C113.86 58.1 114.22 52.99 114.7 47.87C114.74 47.35 114.8 46.41 114.88 45.05C115 43.7 115.1 42.46 115.18 41.34C115.26 40.17 115.4 38.81 115.6 37.25C115.8 35.65 116.04 34.23 116.32 32.99C116.6 31.75 117 30.51 117.52 29.27C118.04 27.99 118.62 26.98 119.26 26.22C119.94 25.46 120.78 24.89 121.78 24.53C122.78 24.13 123.88 24.05 125.08 24.29C125.56 24.41 125.88 24.7 126.04 25.13C126.2 25.58 126.16 25.98 125.92 26.34C125.68 26.7 125.32 26.81 124.84 26.7C123.88 26.49 122.98 26.81 122.14 27.65C121.34 28.49 120.64 29.75 120.04 31.43C119.48 33.11 118.96 35.05 118.48 37.25C118.04 39.46 117.66 41.98 117.34 44.81C117.02 47.61 116.76 50.39 116.56 53.15C116.4 55.91 116.26 58.85 116.14 61.98C119.86 60.22 123.7 59.03 127.66 58.43ZM121.72 101.76C122.04 98.2 121.7 94.79 120.7 91.55C119.7 88.35 118.12 85.6 115.96 83.27C116.04 86.23 116.12 88.29 116.2 89.46C116.56 94.13 117.06 97.72 117.7 100.2C118.22 102.16 118.92 103.54 119.8 104.34C120.72 105.18 121.32 104.64 121.6 102.72L121.72 101.76ZM113.32 77.63C113.28 73.67 113.34 69.81 113.5 66.05C109.82 68.13 105.98 70.99 101.98 74.63C106.22 74.75 110 75.75 113.32 77.63ZM128.45 54.35C128.65 53.91 128.97 53.67 129.41 53.63C129.85 53.6 130.21 53.73 130.49 54.05C130.81 54.37 130.89 54.77 130.73 55.25C128.69 60.37 127.71 65.58 127.79 70.85C127.79 71.53 127.45 71.87 126.77 71.87C126.05 71.87 125.61 71.55 125.45 70.91C125.41 70.79 125.39 70.67 125.39 70.55C125.31 65.15 126.33 59.75 128.45 54.35ZM132.47 47.46C132.75 48.13 132.55 48.67 131.87 49.08L127.61 51.6C127.33 51.75 127.03 51.77 126.71 51.65C126.39 51.49 126.17 51.27 126.05 50.99C125.77 50.35 125.97 49.81 126.65 49.37L130.91 46.85C131.19 46.7 131.49 46.7 131.81 46.85C132.13 46.98 132.35 47.17 132.47 47.46ZM174 55.73C174.32 55.37 174.7 55.23 175.14 55.31C175.62 55.39 175.94 55.63 176.1 56.03C176.3 56.39 176.26 56.77 175.98 57.17C174.98 58.41 173.8 59.7 172.44 61.01C171.08 62.34 169.48 63.65 167.64 64.98C165.8 66.25 164 67.27 162.24 68.03C160.48 68.75 158.68 69.03 156.84 68.87C155 68.67 153.42 67.87 152.1 66.48C151.38 65.67 150.4 64.49 149.16 62.93C147.96 61.37 147.08 60.27 146.52 59.63C146.16 59.27 145.82 58.99 145.5 58.79C145.18 58.55 144.9 58.39 144.66 58.31C144.42 58.23 144.16 58.25 143.88 58.37C143.6 58.49 143.36 58.61 143.16 58.73C143 58.81 142.78 59.01 142.5 59.34C142.22 59.65 142.02 59.91 141.9 60.11C141.78 60.31 141.56 60.65 141.24 61.13C140.92 61.58 140.7 61.87 140.58 62.03C140.38 62.35 139.84 63.37 138.96 65.1C138.12 66.77 137.24 68.22 136.32 69.41C135.44 70.58 134.6 71.22 133.8 71.33C133.32 71.41 132.94 71.27 132.66 70.91C132.38 70.51 132.18 70.1 132.06 69.65C131.9 69.17 131.84 68.61 131.88 67.98C131.92 67.29 131.96 66.77 132 66.41C132.04 66.05 132.14 65.48 132.3 64.67C132.46 63.87 132.56 63.41 132.6 63.29C132.84 61.77 133.3 59.61 133.98 56.81C134.66 53.98 135.06 52.27 135.18 51.72C135.3 51.27 135.58 50.98 136.02 50.81C136.46 50.65 136.86 50.7 137.22 50.93C137.58 51.17 137.7 51.53 137.58 52.01C137.38 52.89 137.04 54.35 136.56 56.39C136.08 58.39 135.72 59.93 135.48 61.01C135 63.37 134.7 65.01 134.58 65.93C134.58 66.05 134.58 66.24 134.58 66.48C134.9 65.87 135.3 65.23 135.78 64.55C136.3 63.87 136.84 63.15 137.4 62.39C137.96 61.63 138.36 61.05 138.6 60.65C138.72 60.49 138.88 60.25 139.08 59.93C139.32 59.61 139.52 59.34 139.68 59.1C139.84 58.85 140.02 58.6 140.22 58.31C140.46 57.99 140.68 57.72 140.88 57.48C141.08 57.23 141.3 56.99 141.54 56.75C141.78 56.51 142.02 56.29 142.26 56.1C142.54 55.89 142.8 55.73 143.04 55.61C143.68 55.46 144.24 55.37 144.72 55.37C145.2 55.37 145.72 55.55 146.28 55.91C146.84 56.27 147.32 56.65 147.72 57.05C148.16 57.46 148.62 57.96 149.1 58.55C149.62 59.15 150.04 59.72 150.36 60.23C150.72 60.72 151.08 61.23 151.44 61.79C151.84 62.35 152.18 62.79 152.46 63.11C153.86 64.83 155.12 65.85 156.24 66.17C157.36 66.46 158.96 66.22 161.04 65.46C165.92 63.65 170.24 60.41 174 55.73ZM197.71 55.55C198.07 55.2 198.45 55.11 198.85 55.31C199.25 55.48 199.49 55.77 199.57 56.22C199.69 56.61 199.59 57.01 199.27 57.41C191.03 65.85 183.91 69.35 177.91 67.91C175.79 67.43 174.19 66.51 173.11 65.15C172.03 63.75 171.61 62.22 171.85 60.53C172.05 58.81 172.83 57.17 174.19 55.61C175.27 54.46 176.67 53.51 178.39 52.79C180.95 51.75 182.21 52.39 182.17 54.72C182.17 54.75 182.17 54.79 182.17 54.84C182.13 56.39 181.19 57.87 179.35 59.27C177.51 60.67 175.85 61.13 174.37 60.65C174.21 62.46 174.97 63.79 176.65 64.67C178.33 65.55 180.17 65.81 182.17 65.46C185.01 64.93 187.65 63.84 190.09 62.15C192.57 60.43 195.11 58.23 197.71 55.55ZM178.69 55.2C178.13 55.23 177.51 55.58 176.83 56.22C176.19 56.85 175.63 57.55 175.15 58.31C175.99 58.72 177.01 58.23 178.21 56.87C179.01 55.96 179.23 55.39 178.87 55.2C178.83 55.2 178.77 55.2 178.69 55.2Z" fill="#292E36" fill-opacity="1.000000" fill-rule="nonzero"/>
	</g>
</svg>
